<svg width="24" height="24" viewBox="0 0 24 24" fill="none" xmlns="http://www.w3.org/2000/svg">
<path d="M6.22185 4.60117C6.66641 4.30412 7.1332 4.04648 7.61686 3.82988C8.98874 3.21551 9.67467 2.90832 10.5873 3.49952C11.4998 4.09073 11.4998 5.06053 11.4998 7.00013V8.50013C11.4998 10.3857 11.4998 11.3285 12.0856 11.9143C12.6714 12.5001 13.6142 12.5001 15.4998 12.5001H16.9998C18.9394 12.5001 19.9092 12.5001 20.5004 13.4126C21.0916 14.3252 20.7844 15.0111 20.17 16.383C19.9534 16.8667 19.6958 17.3335 19.3988 17.778C18.3549 19.3403 16.8712 20.5579 15.1353 21.277C13.3994 21.996 11.4893 22.1841 9.64641 21.8176C7.80359 21.451 6.11085 20.5462 4.78225 19.2176C3.45365 17.889 2.54886 16.1963 2.1823 14.3535C1.81574 12.5106 2.00388 10.6005 2.72291 8.86463C3.44194 7.12873 4.65958 5.64504 6.22185 4.60117Z" fill="black"/>
<path d="M21.4458 7.06925C20.634 5.00855 18.9915 3.36604 16.9308 2.55423C15.3893 1.94694 13.9998 3.3434 13.9998 5.00027V9.00027C13.9998 9.55255 14.4475 10.0002 14.9998 10.0002H18.9998C20.6567 10.0002 22.0531 8.61079 21.4458 7.06925Z" fill="black"/>
</svg>
