<svg width="18" height="18" viewBox="0 0 18 18" fill="none" xmlns="http://www.w3.org/2000/svg">
<g clip-path="url(#clip0_880_4310)">
<path fill-rule="evenodd" clip-rule="evenodd" d="M4.76987 0.60588C6.12448 0.453818 7.54387 0.321144 9.00113 0.321144C10.4585 0.321144 11.8769 0.455139 13.2309 0.604446L13.2349 0.604897C14.3015 0.728041 15.2948 1.2089 16.053 1.96904C16.8113 2.72918 17.2896 3.72377 17.4101 4.79063L17.4106 4.79517C17.5551 6.14367 17.6797 7.55363 17.6797 8.99972C17.6797 9.50926 17.6643 10.0136 17.6379 10.5118C17.6364 10.5407 17.6334 10.5695 17.6288 10.598C16.9129 15.0165 12.7375 17.3167 9.66661 17.6662L9.65936 17.6671C9.63878 17.6694 9.61824 17.6716 9.59776 17.6738C9.54329 17.6794 9.48912 17.6796 9.43596 17.6744C9.29148 17.677 9.14653 17.6783 9.00113 17.6783C7.54385 17.6783 6.1257 17.5456 4.76994 17.3935L4.76733 17.3932C3.70078 17.2701 2.70741 16.7892 1.9492 16.0291C1.19098 15.269 0.712662 14.2744 0.592228 13.2075L0.591737 13.2031C0.447249 11.8558 0.322556 10.4471 0.322556 8.99972C0.322556 7.55237 0.447244 6.14242 0.591746 4.79627L0.592215 4.79189C0.712649 3.72503 1.19098 2.73044 1.9492 1.9703C2.70741 1.21016 3.70078 0.729311 4.76733 0.606168L4.76987 0.60588ZM16.0636 9.66533H13.0156C11.9186 9.66533 11.0699 10.5086 10.9234 11.5199C10.6402 13.4743 10.0153 14.7934 9.10609 16.0709C9.07111 16.071 9.03612 16.0711 9.00113 16.0711C7.63648 16.0711 6.29066 15.9468 4.95048 15.7966C4.24526 15.7149 3.58845 15.3968 3.08706 14.8942C2.58589 14.3917 2.26954 13.7345 2.18946 13.0294C2.04679 11.6987 1.9297 10.3588 1.9297 8.99972C1.9297 7.64056 2.0468 6.29945 2.18946 4.97011C2.26953 4.265 2.58589 3.60773 3.08706 3.10528C3.58845 2.60262 4.24526 2.28455 4.95048 2.20284C6.28931 2.05258 7.63644 1.92829 9.00113 1.92829C10.3654 1.92829 11.7107 2.05372 13.0525 2.20167C13.7575 2.2835 14.414 2.60153 14.9152 3.10402C15.4163 3.60644 15.7327 4.26366 15.8128 4.96871C15.9554 6.30073 16.0726 7.64183 16.0726 8.99972C16.0726 9.22189 16.0695 9.44375 16.0636 9.66533Z" fill="white"/>
</g>
<defs>
<clipPath id="clip0_880_4310">
<rect width="18" height="18" fill="white"/>
</clipPath>
</defs>
</svg>
