<svg width="18" height="18" viewBox="0 0 18 18" fill="none" xmlns="http://www.w3.org/2000/svg">
<g clip-path="url(#clip0_952_4236)">
<path d="M14.6522 9.32291C14.6522 9.32291 15.2319 6.13449 12.913 4.39537C9.56874 1.88717 5.95651 3.5258 5.95651 3.5258" stroke="white" stroke-width="1.5" stroke-linecap="round"/>
<path d="M13.712 11.4984C14.1748 12.1397 15.1296 12.1397 15.5923 11.4984L17.0911 9.42169C17.6445 8.65489 17.0966 7.58377 16.1509 7.58377H13.1534C12.2078 7.58377 11.6598 8.65489 12.2132 9.42169L13.712 11.4984Z" fill="white"/>
<path d="M3.34782 8.21738C3.34782 8.21738 2.76811 11.4058 5.08695 13.1449C8.43124 15.6531 12.0435 14.0145 12.0435 14.0145" stroke="white" stroke-width="1.5" stroke-linecap="round"/>
<path d="M4.28798 6.04186C3.82521 5.40064 2.87043 5.40063 2.40767 6.04186L0.9089 8.11861C0.355511 8.88541 0.903423 9.95653 1.84906 9.95653H4.84659C5.79222 9.95653 6.34014 8.88541 5.78675 8.11861L4.28798 6.04186Z" fill="white"/>
</g>
<defs>
<clipPath id="clip0_952_4236">
<rect width="18" height="18" fill="white"/>
</clipPath>
</defs>
</svg>
