<svg width="18" height="18" viewBox="0 0 18 18" fill="none" xmlns="http://www.w3.org/2000/svg">
<g clip-path="url(#clip0_880_4313)">
<path fill-rule="evenodd" clip-rule="evenodd" d="M6.34068 1.125C6.34068 0.681197 5.98091 0.321426 5.53711 0.321426C5.0933 0.321426 4.73353 0.681197 4.73353 1.125V2.26231C2.55024 2.4442 0.793395 4.13303 0.544634 6.26949C0.247023 8.82549 0.247025 11.0119 0.544634 13.5679C0.799911 15.7603 2.6433 17.4813 4.90594 17.5863C6.21472 17.6469 7.551 17.6784 8.99981 17.6784C10.4486 17.6784 11.7849 17.6469 13.0937 17.5863C15.3563 17.4813 17.1996 15.7603 17.455 13.5679C17.7526 11.0119 17.7526 8.82549 17.455 6.26949C17.2062 4.13316 15.4495 2.44441 13.2665 2.26235V1.125C13.2665 0.681197 12.9066 0.321426 12.4629 0.321426C12.0191 0.321426 11.6593 0.681197 11.6593 1.125V2.19688C10.8039 2.1718 9.9248 2.15897 8.99981 2.15897C8.07494 2.15897 7.19595 2.1718 6.34068 2.19687V1.125ZM11.6593 4.58996V3.80473C10.8052 3.7792 9.92647 3.76611 8.99981 3.76611C8.07328 3.76611 7.1947 3.7792 6.34068 3.80472V4.58996C6.34068 5.03376 5.98091 5.39353 5.53711 5.39353C5.0933 5.39353 4.73353 5.03376 4.73353 4.58996V3.87798C3.36314 4.05294 2.29479 5.1345 2.141 6.45536C1.85776 8.88786 1.85776 10.9495 2.141 13.382C2.30391 14.7812 3.49305 15.9119 4.98037 15.9808C6.26351 16.0403 7.57496 16.0713 8.99981 16.0713C10.4246 16.0713 11.7361 16.0403 13.0193 15.9808C14.5066 15.9119 15.6957 14.7812 15.8586 13.382C16.1419 10.9495 16.1419 8.88786 15.8586 6.45536C15.7049 5.13463 14.6367 4.05315 13.2665 3.87803V4.58996C13.2665 5.03376 12.9066 5.39353 12.4629 5.39353C12.0191 5.39353 11.6593 5.03376 11.6593 4.58996Z" fill="white"/>
<path d="M4.15337 8.95707C4.23421 8.40735 4.70585 8 5.26148 8H7.73852C8.29415 8 8.76579 8.40735 8.84663 8.95707C8.94833 9.64864 8.94833 10.3514 8.84663 11.0429C8.76579 11.5926 8.29415 12 7.73852 12H5.26148C4.70585 12 4.23421 11.5926 4.15337 11.0429C4.05167 10.3514 4.05167 9.64864 4.15337 8.95707Z" fill="white"/>
</g>
<defs>
<clipPath id="clip0_880_4313">
<rect width="18" height="18" fill="white"/>
</clipPath>
</defs>
</svg>
