<svg width="18" height="18" viewBox="0 0 18 18" fill="none" xmlns="http://www.w3.org/2000/svg">
<path d="M3.75 2.25C2.925 2.25 2.25 2.925 2.25 3.75C2.25 4.575 2.925 5.25 3.75 5.25C4.575 5.25 5.25 4.575 5.25 3.75C5.25 2.925 4.575 2.25 3.75 2.25ZM3.75 12.75C2.925 12.75 2.25 13.425 2.25 14.25C2.25 15.075 2.925 15.75 3.75 15.75C4.575 15.75 5.25 15.075 5.25 14.25C5.25 13.425 4.575 12.75 3.75 12.75ZM3.75 7.5C2.925 7.5 2.25 8.175 2.25 9C2.25 9.825 2.925 10.5 3.75 10.5C4.575 10.5 5.25 9.825 5.25 9C5.25 8.175 4.575 7.5 3.75 7.5Z" fill="white"/>
<path d="M9 2.25C8.175 2.25 7.5 2.925 7.5 3.75C7.5 4.575 8.175 5.25 9 5.25C9.825 5.25 10.5 4.575 10.5 3.75C10.5 2.925 9.825 2.25 9 2.25ZM9 12.75C8.175 12.75 7.5 13.425 7.5 14.25C7.5 15.075 8.175 15.75 9 15.75C9.825 15.75 10.5 15.075 10.5 14.25C10.5 13.425 9.825 12.75 9 12.75ZM9 7.5C8.175 7.5 7.5 8.175 7.5 9C7.5 9.825 8.175 10.5 9 10.5C9.825 10.5 10.5 9.825 10.5 9C10.5 8.175 9.825 7.5 9 7.5Z" fill="white"/>
<path d="M14.25 2.25C13.425 2.25 12.75 2.925 12.75 3.75C12.75 4.575 13.425 5.25 14.25 5.25C15.075 5.25 15.75 4.575 15.75 3.75C15.75 2.925 15.075 2.25 14.25 2.25ZM14.25 12.75C13.425 12.75 12.75 13.425 12.75 14.25C12.75 15.075 13.425 15.75 14.25 15.75C15.075 15.75 15.75 15.075 15.75 14.25C15.75 13.425 15.075 12.75 14.25 12.75ZM14.25 7.5C13.425 7.5 12.75 8.175 12.75 9C12.75 9.825 13.425 10.5 14.25 10.5C15.075 10.5 15.75 9.825 15.75 9C15.75 8.175 15.075 7.5 14.25 7.5Z" fill="white"/>
</svg>
