<svg width="24" height="24" viewBox="0 0 24 24" fill="none" xmlns="http://www.w3.org/2000/svg">
<path fill-rule="evenodd" clip-rule="evenodd" d="M12.4277 2.00037C11.3139 2.00037 10.2995 2.60107 8.27081 3.80248L7.58466 4.20883C5.55594 5.41024 4.54158 6.01094 3.98466 7.00037C3.42773 7.9898 3.42773 9.19121 3.42773 11.5941V12.4067C3.42773 14.8096 3.42773 16.011 3.98466 17.0004C4.54158 17.9898 5.55594 18.5905 7.58466 19.7919L8.27081 20.1983C10.2995 21.3997 11.3139 22.0004 12.4277 22.0004C13.5416 22.0004 14.5559 21.3997 16.5847 20.1983L17.2708 19.7919C19.2995 18.5905 20.3139 17.9898 20.8708 17.0004C21.4277 16.011 21.4277 14.8096 21.4277 12.4067V11.5941C21.4277 9.19121 21.4277 7.9898 20.8708 7.00037C20.3139 6.01094 19.2995 5.41024 17.2708 4.20883L16.5847 3.80248C14.5559 2.60107 13.5416 2.00037 12.4277 2.00037ZM8.67773 12.0004C8.67773 9.9293 10.3567 8.25037 12.4277 8.25037C14.4988 8.25037 16.1777 9.9293 16.1777 12.0004C16.1777 14.0715 14.4988 15.7504 12.4277 15.7504C10.3567 15.7504 8.67773 14.0715 8.67773 12.0004Z" fill="black"/>
</svg>
